PathFileType	4	(X/Y/Z)	E:\Qualisys_Data\Carbon_Farble_Plate\Data\Amateur_Runner\S2\T1\S2T1V22_c3d.trc
DataRate	CameraRate	NumFrames	NumMarkers	Units	OrigDataRate	OrigDataStartFrame	OrigNumFrames
200.000000	200.000000	4	39	mm	200.000000	204	327
Frame#	Time	LSHO			RSHO			LICST			RICST			LASIS			LHEEL			RASIS			LTROC			RTROC			SACR			LTH1			LSK4			LTH2			LTH3			RHM5			LSK2			LTH4			RTH1			LTOE			RTH2			RTH3			RTH4			LLEP			RLEP			LSK1			LSK3			RSK1			LHM5			RSK2			LFT1			RSK3			RSK4			LLME			RLME			RTOE			RHEEL			RFT1			RFT2			LFT2			
		X1	Y1	Z1	X2	Y2	Z2	X3	Y3	Z3	X4	Y4	Z4	X5	Y5	Z5	X6	Y6	Z6	X7	Y7	Z7	X8	Y8	Z8	X9	Y9	Z9	X10	Y10	Z10	X11	Y11	Z11	X12	Y12	Z12	X13	Y13	Z13	X14	Y14	Z14	X15	Y15	Z15	X16	Y16	Z16	X17	Y17	Z17	X18	Y18	Z18	X19	Y19	Z19	X20	Y20	Z20	X21	Y21	Z21	X22	Y22	Z22	X23	Y23	Z23	X24	Y24	Z24	X25	Y25	Z25	X26	Y26	Z26	X27	Y27	Z27	X28	Y28	Z28	X29	Y29	Z29	X30	Y30	Z30	X31	Y31	Z31	X32	Y32	Z32	X33	Y33	Z33	X34	Y34	Z34	X35	Y35	Z35	X36	Y36	Z36	X37	Y37	Z37	X38	Y38	Z38	X39	Y39	Z39	

205	1.02	537.9993896484375	1450.454223632812	-437.1531677246094	594.8797607421875	1412.845825195312	-127.6566619873047	494.9396362304688	984.139404296875	-438.1550903320312	494.8923034667969	964.205078125	-134.1513214111328	552.4176025390625	934.2577514648438	-416.0748596191406	332.9575805664062	389.2865905761719	-326.9700012207031	550.3467407226562	915.9461059570312	-155.2294769287109	437.267578125	862.1189575195312	-448.2423400878906	390.9157409667969	875.6822509765625	-142.9234619140625	406.2640380859375	1019.532287597656	-283.6955261230469	680.2859497070312	712.2924194335938	-425.2633666992188	508.72412109375	475.5329284667969	-405.5531921386719	614.0020141601562	663.7090454101562	-443.7300109863281	736.4463500976562	627.951904296875	-404.1675109863281	236.5694427490234	58.34067153930664	-174.0490112304688	595.0618896484375	524.8121948242188	-417.9400329589844	664.8842163085938	579.3341674804688	-412.4497375488281	472.8323059082031	596.970458984375	-127.4874572753906	467.729736328125	189.6336822509766	-373.3929748535156	397.0381164550781	614.0051879882812	-133.2410583496094	450.5462951660156	499.0767211914062	-152.2557830810547	373.78662109375	521.5061645507812	-150.9290618896484	712.8878173828125	558.1014404296875	-410.8266296386719	390.3681335449219	478.3014526367188	-145.8913726806641	634.0765991210938	456.6874084472656	-410.5784606933594	546.850830078125	407.4999389648438	-403.213134765625	355.8104248046875	355.5503234863281	-149.7310791015625	420.0639343261719	228.1277008056641	-431.0770874023438	291.7459106445312	403.9448547363281	-141.9043884277344	320.3574829101562	363.679931640625	-298.6630859375	294.4200134277344	275.1644897460938	-163.9276123046875	232.8137359619141	325.1213073730469	-157.6340026855469	375.7891235351562	355.1766357421875	-386.9829406738281	152.2991027832031	151.9083404541016	-197.1096649169922	289.5345764160156	53.62369537353516	-242.5255737304688	84.81575012207031	161.3292846679688	-252.9231567382812	88.00618743896484	131.0006256103516	-283.9559631347656	75.12804412841797	138.3339080810547	-227.6286773681641	310.7589721679688	373.3984375	-352.1310729980469
206	1.025	555.3728637695312	1455.696044921875	-437.4882507324219	615.8096923828125	1418.623657226562	-129.3568420410156	515.9486694335938	989.7181396484376	-437.7967224121094	517.515625	968.7616577148438	-134.3403167724609	573.5838012695312	939.9104614257812	-416.1772155761719	364.4235534667969	376.4583129882812	-325.7239379882812	572.3487548828125	920.4318237304688	-155.5965270996094	459.3902893066406	867.994140625	-449.0473022460938	412.5264587402344	881.2456665039062	-142.7323760986328	427.5386962890625	1024.302734375	-283.0780639648438	703.8099975585938	718.4620361328125	-423.7398681640625	534.7540893554688	471.8738708496094	-405.1539916992188	637.908447265625	669.7879028320312	-443.3331298828125	760.014404296875	634.1905517578125	-402.64794921875	238.7341613769531	59.29657745361328	-172.5144653320312	618.7578735351562	525.5779418945312	-416.3074340820312	689.0559692382812	586.5343627929688	-413.3149108886719	487.1562805175781	601.5444946289062	-127.8392868041992	508.6240234375	184.9176483154297	-373.3784484863281	412.3614196777344	621.7636108398438	-132.2185974121094	462.5142822265625	505.1399230957031	-150.9128112792969	386.1905212402344	529.6845092773438	-149.1078033447266	735.8181762695312	563.9951782226562	-409.0677795410156	400.9541931152344	485.9069213867188	-144.3512420654297	661.257080078125	459.0327453613281	-409.9696044921875	576.364013671875	405.7394104003906	-402.5779113769531	363.8695068359375	364.3464660644531	-146.7935180664062	458.9369201660156	220.7307434082031	-431.0139770507812	299.6365966796875	412.5724792480469	-140.1575164794922	355.900146484375	348.6976928710938	-298.5269775390625	302.3346252441406	283.1139831542969	-161.4742584228516	240.9215240478516	333.7414245605469	-156.1171569824219	407.4846801757812	345.6352844238281	-387.2557373046875	160.2789306640625	159.2403106689453	-194.8686065673828	291.7546081542969	54.33182525634766	-240.9107971191406	93.87273406982422	171.3766479492188	-251.7252655029297	96.41007232666016	141.3748321533203	-282.5133361816406	83.06233215332031	148.4694519042969	-226.7944030761719	342.0195922851562	359.6318054199219	-351.9524230957031
207	1.03	572.967041015625	1460.898681640625	-437.3985900878906	636.519775390625	1424.265380859375	-130.5513305664062	536.9478759765625	995.3796997070312	-437.0937194824219	539.7025756835938	973.5697021484376	-134.49609375	594.4971313476562	945.3827514648438	-415.8403015136719	395.4342956542969	363.8586730957031	-325.1752624511719	594.453369140625	924.7103881835938	-155.8792724609375	481.229248046875	873.5184936523438	-449.4650573730469	433.9989318847656	886.880126953125	-142.2818145751953	448.8482666015625	1028.783935546875	-282.1376647949219	726.847412109375	724.4724731445312	-423.1263122558594	560.9183349609375	467.9980163574219	-404.3218383789062	661.7687377929688	675.3670043945312	-443.4600524902344	782.8432006835938	639.9743041992188	-401.6867065429688	241.2556915283203	59.74826431274414	-171.0662384033203	642.6723022460938	525.627685546875	-415.2498474121094	712.33935546875	592.21630859375	-412.69677734375	501.9189147949219	607.2426147460938	-127.2175445556641	549.6450805664062	180.5433502197266	-373.1313171386719	427.6709289550781	629.31982421875	-131.1174468994141	474.4977722167969	511.3171081542969	-149.4215850830078	398.4088134765625	537.62646484375	-147.6581268310547	758.7059326171875	569.9243774414062	-408.8235778808594	411.6937561035156	493.2389831542969	-142.7743225097656	687.7496948242188	461.0852966308594	-409.8225708007812	605.970947265625	403.1152954101562	-402.7379455566406	372.125732421875	372.6186218261719	-144.6743469238281	497.9601745605469	213.4894714355469	-430.5803833007812	307.9241943359375	421.1083374023438	-138.2830352783203	386.8865966796875	335.3018188476562	-298.5776062011719	311.1758117675781	291.3303833007812	-158.2490539550781	249.224365234375	341.7098083496094	-154.7459869384766	440.0545654296875	335.2676696777344	-386.7246704101562	169.115234375	166.0203094482422	-193.0674285888672	294.4786071777344	54.71574783325195	-239.0995635986328	103.8484725952148	181.4886016845703	-250.44873046875	105.8889236450195	152.5670013427734	-281.7653503417969	91.9965362548828	158.9878387451172	-225.7887573242188	373.8419494628906	345.3987731933594	-351.4347839355469
208	1.035	590.2486572265625	1465.841186523438	-437.2124938964844	656.8167114257812	1429.8642578125	-132.3343353271484	557.937744140625	1000.8603515625	-436.5180053710938	561.9320678710938	978.2509765625	-134.6255035400391	615.534423828125	950.6809692382812	-415.8550109863281	426.236083984375	351.1158142089844	-324.6414794921875	616.0426635742188	929.3773193359376	-156.2823333740234	503.0114440917969	878.9680786132812	-449.8642883300781	455.5838623046875	892.182373046875	-141.7830047607422	470.2286071777344	1033.479125976562	-281.34619140625	749.7850341796875	729.4572143554688	-422.2101745605469	586.88330078125	463.8121948242188	-403.7808837890625	687.2219848632812	682.5863647460938	-447.4718322753906	805.7321166992188	645.1041259765625	-400.9737548828125	244.1537628173828	60.74367141723633	-169.4669799804688	665.999267578125	525.0592651367188	-414.4417114257812	735.5100708007812	597.6015625	-412.8415832519531	517.0953979492188	612.6912841796875	-126.8156280517578	590.321044921875	176.3780975341797	-373.0303955078125	443.0131530761719	636.8803100585938	-129.9605560302734	486.7001342773438	517.3413696289062	-148.50634765625	411.1417541503906	545.8424072265625	-146.3955383300781	781.2706909179688	574.7597045898438	-408.7124328613281	422.7373046875	500.7568359375	-141.6655883789062	713.6856079101562	462.4271850585938	-410.1813354492188	634.9507446289062	401.100830078125	-403.1376647949219	381.2809143066406	381.3622131347656	-142.1594543457031	536.56201171875	206.5740203857422	-430.4335327148438	316.8975830078125	429.6817016601562	-136.867431640625	420.09033203125	322.0387268066406	-298.5252380371094	320.8522644042969	299.9639892578125	-155.3442687988281	258.8160095214844	350.1911010742188	-152.9792785644531	472.5063781738281	324.8430786132812	-386.4195556640625	178.2781219482422	172.9275665283203	-190.5895233154297	297.2919006347656	54.98957061767578	-236.5038909912109	115.1439895629883	192.052490234375	-248.8873291015625	116.1388854980469	163.8504333496094	-280.5783081054688	101.6012649536133	170.2499084472656	-224.9508972167969	405.9172973632812	332.1424865722656	-350.6612243652344
